<svg height='30' width='30'  fill="#dce9f9" xmlns="http://www.w3.org/2000/svg" viewBox="0 0 32 32" x="0px" y="0px"><g data-name="68 Code"><path d="M29.5,16a1.49,1.49,0,0,1-.6,1.2L26.5,19a2.53,2.53,0,0,0-1,2v3A5.51,5.51,0,0,1,20,29.5a1.5,1.5,0,0,1,0-3A2.5,2.5,0,0,0,22.5,24V21a5.52,5.52,0,0,1,2.2-4.4l.8-.6-.8-.6A5.52,5.52,0,0,1,22.5,11V8A2.5,2.5,0,0,0,20,5.5a1.5,1.5,0,0,1,0-3A5.51,5.51,0,0,1,25.5,8v3a2.53,2.53,0,0,0,1,2l2.4,1.8A1.49,1.49,0,0,1,29.5,16Zm-20-5V8A2.5,2.5,0,0,1,12,5.5a1.5,1.5,0,0,0,0-3A5.51,5.51,0,0,0,6.5,8v3a2.53,2.53,0,0,1-1,2L3.1,14.8a1.5,1.5,0,0,0,0,2.4L5.5,19a2.53,2.53,0,0,1,1,2v3A5.51,5.51,0,0,0,12,29.5a1.5,1.5,0,0,0,0-3A2.5,2.5,0,0,1,9.5,24V21a5.52,5.52,0,0,0-2.2-4.4L6.5,16l.8-.6A5.52,5.52,0,0,0,9.5,11Z"></path></g></svg>